<svg xmlns="http://www.w3.org/2000/svg" height="40" viewBox="0 -960 960 960" width="40"><path fill="white" d="M480.667-28.667 346-160H160v-186L26.667-480 160-614v-186h186l134.667-133.333L614-800h186v186l133.333 134L800-346v186H614L480.667-28.667Zm0-197.999q105.278 0 178.972-74.084 73.695-74.083 73.695-179.917 0-105.278-73.695-178.972-73.694-73.695-178.972-73.695-105.834 0-179.917 73.695-74.084 73.694-74.084 178.972 0 105.834 74.084 179.917 74.083 74.084 179.917 74.084Zm-.334-66.667q-77.667 0-132.334-54.666-54.666-54.667-54.666-132.334t54.666-132.001q54.667-54.333 132.334-54.333t132.001 54.333Q666.667-558 666.667-480.333t-54.333 132.334Q558-293.333 480.333-293.333Zm.334 171.334 105.278-104.667h147.389V-374l106-106-106-106v-147.334H586l-105.333-106-106.667 106H226.666V-586l-106 106 106 106v147.334h146.667l107.334 104.667ZM480-480.667Z"/></svg>