<svg xmlns="http://www.w3.org/2000/svg" height="40" viewBox="0 -960 960 960" width="40"><path fill="white" d="m694-361.333-48-48q18.667-25 27.667-55t9-61.667h66.666q0 45.333-14.333 87.167-14.334 41.833-41 77.5ZM467.333-588.667Zm102 102L510-545.333v-227.334q0-17.283-11.692-28.975t-28.975-11.692q-17.283 0-28.975 11.692t-11.692 28.975v145.334L362-693.999v-78.668q0-44.722 31.294-76.028 31.294-31.305 76-31.305t76.039 31.305q31.333 31.306 31.333 76.028V-526q0 9-1.833 20-1.834 11-5.5 19.333ZM436-120v-131.667q-105.333-12-176-90.333t-70.667-184h66.666q0 88.333 62.167 149.167Q380.333-316 469.333-316q36.667 0 70.24-11.725 33.574-11.725 61.094-32.942L648.333-313Q618-288 581.157-272.289q-36.843 15.712-78.491 20.622V-120H436Zm382.001 64.667L42.666-830.668l44-43.999L862-99.333l-43.999 44Z"/></svg>