<svg xmlns="http://www.w3.org/2000/svg" height="40" viewBox="0 -960 960 960" width="40"><path fill="white" d="M560-131v-68.666q94.667-27.334 154-105Q773.334-382.333 773.334-481t-59-176.667q-59.001-78-154.334-104.667V-831q124 28 202 125.5T840-481q0 127-78 224.5T560-131ZM120-360v-240h160l200-200v640L280-360H120Zm426.666 45.333v-332Q599-628 629.5-582T660-480q0 55-30.833 100.834-30.834 45.833-82.501 64.499ZM413.334-634.001 309.333-533.334H186.666v106.668h122.667l104.001 101.334v-308.669Zm-96 154.001Z"/></svg>