<svg xmlns="http://www.w3.org/2000/svg" height="40" viewBox="0 -960 960 960" width="40"><path fill="white" d="M806-56 677.667-184.334q-27 18.667-58 32.167T555.333-131v-68.666q20-6.334 38.834-13.667 18.833-7.333 35.5-19L475.333-387.334V-160l-200-200h-160v-240H262L51.333-810.667 98.666-858l754.667 754L806-56Zm-26.667-232-48-48q19.001-33 28.167-69.615 9.167-36.616 9.167-75.385 0-100.215-58.334-179.108Q652-739 555.333-762.334V-831q124 28 202 125.5t78 224.5q0 51.667-14.166 100.667-14.167 49-41.834 92.333Zm-134-134-90-90v-130q47 22 73.5 66t26.5 96q0 15-2.5 29.5t-7.5 28.5Zm-170-170-104-104 104-104v208Zm-66.666 270.001v-131.334l-80-80.001H181.999v106.668H304l104.667 104.667Zm-40-171.335Z"/></svg>