<svg xmlns="http://www.w3.org/2000/svg" height="48" viewBox="0 -960 960 960" width="48"><path fill="white" d="m 41.399998,-277.33982 q -13.499997,9 -27.449998,0.9 -13.95,-8.1 -13.95,-24.3 v -405 q 0,-16.2 13.95,-24.3 13.950001,-8.1 27.449998,0.9 l 318.599992,203.4 q 12.6,8.1 12.6,22.5 0,14.4 -12.6,22.5 z"/><path fill="white" d="m 856.5,-228 q -22.275,0 -38.1375,-15.8625 Q 802.5,-259.725 802.5,-282 v -396 q 0,-22.275 15.8625,-38.1375 Q 834.225,-732 856.5,-732 H 906 q 22.275,0 38.1375,15.8625 Q 960,-700.275 960,-678 v 396 q 0,22.275 -15.8625,38.1375 Q 928.275,-228 906,-228 Z m -292.5,0 q -22.275,0 -38.1375,-15.8625 Q 510,-259.725 510,-282 v -396 q 0,-22.275 15.8625,-38.1375 Q 541.725,-732 564,-732 h 49.5 q 22.275,0 38.1375,15.8625 Q 667.5,-700.275 667.5,-678 v 396 q 0,22.275 -15.8625,38.1375 Q 635.775,-228 613.5,-228 Z"/></svg>